# xmcd
#
# Track frame offsets:
#	150
#	13442
#	24647
#	40850
#	52927
#	67835
#	84307
#	97982
#	110002
#	125850
#
# Disc length: 1862 seconds
#
# Revision: 0
# Processed by: cddbd v1.4PL0 Copyright (c) Steve Scherf et al.
# Submitted via: dBpowerAMP V4.0
#
DISCID=7f07440a
DTITLE=Mickey Gilley - Biggest Hits
DYEAR=1900
DGENRE=Country
TTITLE0=Ture Love Ways
TTITLE1=The Power of Positive Drinkin'
TTITLE2=A Headache Tomorrow (Or a Heartache Tonight)
TTITLE3=Chains of Love
TTITLE4=Tears of the Lonely
TTITLE5=Stand By Me
TTITLE6=My Affection
TTITLE7=That's All That Matters
TTITLE8=Lonely Nights
TTITLE9=You Don't Know Me
EXTD=
EXTT0=
EXTT1=
EXTT2=
EXTT3=
EXTT4=
EXTT5=
EXTT6=
EXTT7=
EXTT8=
EXTT9=
PLAYORDER=
